<svg width="50" height="51" viewBox="0 0 50 51" fill="none" xmlns="http://www.w3.org/2000/svg">
<rect width="50" height="50" rx="12" fill="#EF4A2B"/>
<path d="M29.7855 40.08C29.2521 40.7467 28.5721 41.2933 27.7455 41.72C26.9455 42.12 26.1721 42.32 25.4255 42.32H22.5455C20.2521 42.32 18.3988 41.6133 16.9855 40.2C15.5721 38.76 14.8655 36.8667 14.8655 34.52V29.84C14.8655 27.3867 15.5855 25.4267 17.0255 23.96C18.4921 22.4667 20.4255 21.72 22.8255 21.72H25.5855C26.4121 21.72 27.2388 21.9467 28.0655 22.4C28.8921 22.8267 29.5588 23.4 30.0655 24.12V22.04H34.3455V50.04H29.7855V40.08ZM25.5855 38.36C26.7055 38.36 27.6521 37.9067 28.4255 37C29.1988 36.0933 29.6521 34.92 29.7855 33.48V29.6C29.6521 28.4267 29.2255 27.48 28.5055 26.76C27.8121 26.04 26.9588 25.68 25.9455 25.68H23.1455C22.0521 25.68 21.1588 26.0933 20.4655 26.92C19.7988 27.72 19.4655 28.7867 19.4655 30.12V34.24C19.4655 35.4667 19.7721 36.4667 20.3855 37.24C20.9988 37.9867 21.8121 38.36 22.8255 38.36H25.5855Z" fill="white"/>
</svg>
