<svg width="111" height="22" viewBox="0 0 111 22" fill="none" xmlns="http://www.w3.org/2000/svg">
<path d="M9.008 15.848C8.688 16.248 8.28 16.576 7.784 16.832C7.304 17.072 6.84 17.192 6.392 17.192H4.664C3.288 17.192 2.176 16.768 1.328 15.92C0.48 15.056 0.0560001 13.92 0.0560001 12.512V9.704C0.0560001 8.232 0.488 7.056 1.352 6.176C2.232 5.28 3.392 4.832 4.832 4.832H6.488C6.984 4.832 7.48 4.968 7.976 5.24C8.472 5.496 8.872 5.84 9.176 6.272V5.024H11.744V21.824H9.008V15.848ZM6.488 14.816C7.16 14.816 7.728 14.544 8.192 14C8.656 13.456 8.928 12.752 9.008 11.888V9.56C8.928 8.856 8.672 8.288 8.24 7.856C7.824 7.424 7.312 7.208 6.704 7.208H5.024C4.368 7.208 3.832 7.456 3.416 7.952C3.016 8.432 2.816 9.072 2.816 9.872V12.344C2.816 13.08 3 13.68 3.368 14.144C3.736 14.592 4.224 14.816 4.832 14.816H6.488ZM19.2494 17.192C18.2734 17.192 17.4094 17.008 16.6574 16.64C15.9214 16.272 15.3454 15.752 14.9294 15.08C14.5294 14.408 14.3294 13.632 14.3294 12.752V9.536C14.3294 8.608 14.5294 7.792 14.9294 7.088C15.3454 6.368 15.9214 5.816 16.6574 5.432C17.4094 5.032 18.2734 4.832 19.2494 4.832H21.1694C22.6254 4.832 23.7934 5.256 24.6734 6.104C25.5534 6.952 25.9934 8.08 25.9934 9.488V11.888H17.0894V12.752C17.0894 13.392 17.2814 13.904 17.6654 14.288C18.0654 14.672 18.5934 14.864 19.2494 14.864H21.0974C21.7374 14.864 22.2494 14.712 22.6334 14.408C23.0334 14.088 23.2334 13.672 23.2334 13.16H25.9454C25.9454 14.376 25.4974 15.352 24.6014 16.088C23.7054 16.824 22.5294 17.192 21.0734 17.192H19.2494ZM23.2814 9.824V9.488C23.2814 8.784 23.0894 8.216 22.7054 7.784C22.3214 7.352 21.8174 7.136 21.1934 7.136H19.2494C18.5934 7.136 18.0574 7.368 17.6414 7.832C17.2414 8.28 17.0414 8.872 17.0414 9.608V9.824H23.2814ZM32.9135 17.192C31.9375 17.192 31.0735 17.008 30.3215 16.64C29.5855 16.272 29.0095 15.752 28.5935 15.08C28.1935 14.408 27.9935 13.632 27.9935 12.752V9.536C27.9935 8.608 28.1935 7.792 28.5935 7.088C29.0095 6.368 29.5855 5.816 30.3215 5.432C31.0735 5.032 31.9375 4.832 32.9135 4.832H34.8335C36.2895 4.832 37.4575 5.256 38.3375 6.104C39.2175 6.952 39.6575 8.08 39.6575 9.488V11.888H30.7535V12.752C30.7535 13.392 30.9455 13.904 31.3295 14.288C31.7295 14.672 32.2575 14.864 32.9135 14.864H34.7615C35.4015 14.864 35.9135 14.712 36.2975 14.408C36.6975 14.088 36.8975 13.672 36.8975 13.16H39.6095C39.6095 14.376 39.1615 15.352 38.2655 16.088C37.3695 16.824 36.1935 17.192 34.7375 17.192H32.9135ZM36.9455 9.824V9.488C36.9455 8.784 36.7535 8.216 36.3695 7.784C35.9855 7.352 35.4815 7.136 34.8575 7.136H32.9135C32.2575 7.136 31.7215 7.368 31.3055 7.832C30.9055 8.28 30.7055 8.872 30.7055 9.608V9.824H36.9455ZM42.1376 5.024H44.7056V6.44C45.0416 5.96 45.4736 5.576 46.0016 5.288C46.5456 4.984 47.0736 4.832 47.5856 4.832H49.1696C50.5616 4.832 51.6816 5.256 52.5296 6.104C53.3936 6.936 53.8256 8.04 53.8256 9.416V12.2C53.8256 13.704 53.4016 14.912 52.5536 15.824C51.7056 16.736 50.5776 17.192 49.1696 17.192H47.5616C47.0976 17.192 46.6176 17.08 46.1216 16.856C45.6256 16.616 45.2176 16.304 44.8976 15.92V21.8H42.1376V5.024ZM48.8816 14.816C49.5376 14.816 50.0656 14.56 50.4656 14.048C50.8816 13.536 51.0896 12.864 51.0896 12.032V9.584C51.0896 8.88 50.8896 8.312 50.4896 7.88C50.0896 7.432 49.5616 7.208 48.9056 7.208H47.3696C46.8256 7.208 46.3216 7.424 45.8576 7.856C45.4096 8.272 45.0896 8.816 44.8976 9.488V12.272C44.9776 13.024 45.2416 13.64 45.6896 14.12C46.1536 14.584 46.7056 14.816 47.3456 14.816H48.8816ZM64.2421 7.4H62.1781V5.024H64.2421V4.184C64.2421 2.888 64.6261 1.888 65.3941 1.184C66.1781 0.463999 67.2741 0.103999 68.6821 0.103999H70.1461V2.456H68.7301C68.1381 2.456 67.6981 2.6 67.4101 2.888C67.1381 3.16 67.0021 3.6 67.0021 4.208V5.024H69.8821V7.4H67.0021V17H64.2421V7.4ZM75.827 17.192C74.355 17.192 73.171 16.768 72.275 15.92C71.379 15.056 70.931 13.92 70.931 12.512V9.536C70.931 8.608 71.131 7.792 71.531 7.088C71.947 6.368 72.523 5.816 73.259 5.432C74.011 5.032 74.875 4.832 75.851 4.832H77.963C78.939 4.832 79.795 5.032 80.531 5.432C81.283 5.816 81.859 6.368 82.259 7.088C82.675 7.792 82.883 8.608 82.883 9.536V12.512C82.883 13.92 82.427 15.056 81.515 15.92C80.619 16.768 79.419 17.192 77.915 17.192H75.827ZM77.891 14.816C78.563 14.816 79.099 14.592 79.499 14.144C79.915 13.68 80.123 13.08 80.123 12.344V9.68C80.123 8.944 79.923 8.352 79.523 7.904C79.123 7.44 78.587 7.208 77.915 7.208H75.899C75.227 7.208 74.691 7.44 74.291 7.904C73.891 8.352 73.691 8.944 73.691 9.68V12.344C73.691 13.08 73.891 13.68 74.291 14.144C74.691 14.592 75.211 14.816 75.851 14.816H77.891ZM89.8895 17.192C88.4175 17.192 87.2335 16.768 86.3375 15.92C85.4415 15.056 84.9935 13.92 84.9935 12.512V9.536C84.9935 8.608 85.1935 7.792 85.5935 7.088C86.0095 6.368 86.5855 5.816 87.3215 5.432C88.0735 5.032 88.9375 4.832 89.9135 4.832H92.0255C93.0015 4.832 93.8575 5.032 94.5935 5.432C95.3455 5.816 95.9215 6.368 96.3215 7.088C96.7375 7.792 96.9455 8.608 96.9455 9.536V12.512C96.9455 13.92 96.4895 15.056 95.5775 15.92C94.6815 16.768 93.4815 17.192 91.9775 17.192H89.8895ZM91.9535 14.816C92.6255 14.816 93.1615 14.592 93.5615 14.144C93.9775 13.68 94.1855 13.08 94.1855 12.344V9.68C94.1855 8.944 93.9855 8.352 93.5855 7.904C93.1855 7.44 92.6495 7.208 91.9775 7.208H89.9615C89.2895 7.208 88.7535 7.44 88.3535 7.904C87.9535 8.352 87.7535 8.944 87.7535 9.68V12.344C87.7535 13.08 87.9535 13.68 88.3535 14.144C88.7535 14.592 89.2735 14.816 89.9135 14.816H91.9535ZM103.616 17.192C102.256 17.192 101.152 16.768 100.304 15.92C99.472 15.056 99.056 13.928 99.056 12.536V9.752C99.056 8.776 99.256 7.92 99.656 7.184C100.056 6.432 100.616 5.856 101.336 5.456C102.072 5.04 102.912 4.832 103.856 4.832H105.32C105.816 4.832 106.304 4.944 106.784 5.168C107.28 5.392 107.688 5.688 108.008 6.056V0.199999H110.744V17H108.176V15.344C107.84 15.904 107.392 16.352 106.832 16.688C106.272 17.024 105.704 17.192 105.128 17.192H103.616ZM105.344 14.816C106.032 14.816 106.624 14.544 107.12 14C107.632 13.44 107.928 12.752 108.008 11.936V9.536C107.896 8.848 107.624 8.288 107.192 7.856C106.776 7.424 106.272 7.208 105.68 7.208H104.144C103.44 7.208 102.872 7.456 102.44 7.952C102.024 8.448 101.816 9.096 101.816 9.896V12.368C101.816 13.104 102.008 13.696 102.392 14.144C102.792 14.592 103.296 14.816 103.904 14.816H105.344Z" fill="#EF4A2B"/>
</svg>
